[{"channel":1,"controlChanges":{},"pitchBends":[],"instrument":{"family":"piano","number":0,"name":"acoustic grand piano"},"name":"","notes":[{"duration":0.11588541666666667,"durationTicks":89,"midi":42,"name":"F#2","ticks":7,"time":0.009114583333333334,"velocity":0.6299212598425197},{"duration":0.25390625,"durationTicks":195,"midi":49,"name":"C#3","ticks":141,"time":0.18359375,"velocity":0.6299212598425197},{"duration":0.15234375,"durationTicks":117,"midi":54,"name":"F#3","ticks":315,"time":0.41015625,"velocity":0.6299212598425197},{"duration":0.26041666666666663,"durationTicks":200,"midi":49,"name":"C#3","ticks":435,"time":0.56640625,"velocity":0.6299212598425197},{"duration":0.12369791666666663,"durationTicks":95,"midi":38,"name":"D2","ticks":625,"time":0.8138020833333334,"velocity":0.6299212598425197},{"duration":0.30729166666666663,"durationTicks":236,"midi":45,"name":"A2","ticks":724,"time":0.9427083333333334,"velocity":0.6299212598425197},{"duration":0.21744791666666674,"durationTicks":167,"midi":50,"name":"D3","ticks":937,"time":1.2200520833333333,"velocity":0.6299212598425197},{"duration":0.2578125,"durationTicks":198,"midi":45,"name":"A2","ticks":1090,"time":1.4192708333333333,"velocity":0.6299212598425197},{"duration":0.19791666666666674,"durationTicks":152,"midi":40,"name":"E2","ticks":1240,"time":1.6145833333333333,"velocity":0.6299212598425197},{"duration":0.25651041666666674,"durationTicks":197,"midi":47,"name":"B2","ticks":1387,"time":1.8059895833333333,"velocity":0.6299212598425197},{"duration":0.17317708333333348,"durationTicks":133,"midi":52,"name":"E3","ticks":1547,"time":2.0143229166666665,"velocity":0.6299212598425197},{"duration":0.18489583333333348,"durationTicks":142,"midi":47,"name":"B2","ticks":1683,"time":2.19140625,"velocity":0.6299212598425197},{"duration":0.3658854166666665,"durationTicks":281,"midi":57,"name":"A3","ticks":1852,"time":2.4114583333333335,"velocity":0.6299212598425197},{"duration":0.14583333333333348,"durationTicks":112,"midi":56,"name":"G#3","ticks":2144,"time":2.7916666666666665,"velocity":0.6299212598425197},{"duration":0.1875,"durationTicks":144,"midi":51,"name":"D#3","ticks":2256,"time":2.9375,"velocity":0.6299212598425197},{"duration":0.11588541666666652,"durationTicks":89,"midi":42,"name":"F#2","ticks":2455,"time":3.1966145833333335,"velocity":0.6299212598425197},{"duration":0.25390625,"durationTicks":195,"midi":49,"name":"C#3","ticks":2589,"time":3.37109375,"velocity":0.6299212598425197},{"duration":0.15234375,"durationTicks":117,"midi":54,"name":"F#3","ticks":2763,"time":3.59765625,"velocity":0.6299212598425197},{"duration":0.26041666666666696,"durationTicks":200,"midi":49,"name":"C#3","ticks":2883,"time":3.75390625,"velocity":0.6299212598425197},{"duration":0.12369791666666696,"durationTicks":95,"midi":38,"name":"D2","ticks":3073,"time":4.001302083333333,"velocity":0.6299212598425197},{"duration":0.30729166666666696,"durationTicks":236,"midi":45,"name":"A2","ticks":3172,"time":4.130208333333333,"velocity":0.6299212598425197},{"duration":0.21744791666666696,"durationTicks":167,"midi":50,"name":"D3","ticks":3385,"time":4.407552083333333,"velocity":0.6299212598425197},{"duration":0.2578125,"durationTicks":198,"midi":45,"name":"A2","ticks":3538,"time":4.606770833333333,"velocity":0.6299212598425197},{"duration":0.19791666666666696,"durationTicks":152,"midi":40,"name":"E2","ticks":3688,"time":4.802083333333333,"velocity":0.6299212598425197},{"duration":0.25651041666666696,"durationTicks":197,"midi":47,"name":"B2","ticks":3835,"time":4.993489583333333,"velocity":0.6299212598425197},{"duration":0.17317708333333304,"durationTicks":133,"midi":52,"name":"E3","ticks":3995,"time":5.201822916666667,"velocity":0.6299212598425197},{"duration":0.18489583333333304,"durationTicks":142,"midi":47,"name":"B2","ticks":4131,"time":5.37890625,"velocity":0.6299212598425197},{"duration":0.36588541666666696,"durationTicks":281,"midi":57,"name":"A3","ticks":4300,"time":5.598958333333333,"velocity":0.6299212598425197},{"duration":0.14583333333333304,"durationTicks":112,"midi":56,"name":"G#3","ticks":4592,"time":5.979166666666667,"velocity":0.6299212598425197},{"duration":0.1875,"durationTicks":144,"midi":51,"name":"D#3","ticks":4704,"time":6.125,"velocity":0.6299212598425197},{"duration":0.20833333333333304,"durationTicks":160,"midi":42,"name":"F#2","ticks":4832,"time":6.291666666666667,"velocity":0.6299212598425197}],"endOfTrackTicks":74472}]